<svg id="Calque_1" data-name="Calque 1" xmlns="http://www.w3.org/2000/svg" viewBox="0 0 1366 768">
  <defs>
    <style>
      .cls-1 {
        fill: #fff;
      }
    </style>
  </defs>
  <g>
    <path class="cls-1" d="M1092,339.29v1.56c-6.55,3.92-15.52-2.2-21.48,5.16-.63.77-4.47-.17-6-1.36-.76-.59.07-3.63.61-5.42,1.44-4.75,3.82-9.35,4.29-14.16.15-1.62-5.6-5.75-6.44-5.22-7.48,4.67-13.22-1.33-19.65-2.41q-1,2.15-1.94,4.29c-.89-.45-2.5-.87-2.52-1.36a6.37,6.37,0,0,1,.93-4.14c1.59-1.87,3.7-3.3,6-5.24-15.65,1.13-29.4,5-40.23,16.92-3.53,3.88-9,6-13.85,9-4.34-9.25-4.71-9.18-13.22-6.69-9.65,2.81-17.43,8-23.13,16.26a5.07,5.07,0,0,1-.09.54c-5.25,4.82-8.83,9.88-5.16,17.61.76,1.6-1,5.67-2.83,6.95-4.78,3.4-10.21,5.91-15.39,8.77l-3.83,2.72c-6,.46-9.42,4.84-9.26,9.67s3.36,9.38,5.24,14.06l-.25-.26c1.15,2.66,2.29,5.33,3.86,9l-57.15-20.13c2.33-4.53,3.88-7.77,5.63-10.91,7.52-13.55,6.86-15.82-7-23.46-.46-.25-1-.42-1.43-.65-17.05-8.4-34.15-16.72-51.1-25.33-2.23-1.13-5.13-3.67-5.26-5.72-.4-6,.45-12,.81-18l2.23-.32a71,71,0,0,0,5.08,7.54c1.89,2.19,4.32,3.93,7.19,6.46-.78-12.89-1.45-23.84-2.24-36.78l19,12.62c-1.94-8.32-3.36-14.43-4.93-21.18l11.41,2.69c-7.7-12.49-4.65-23.21-1.24-33.89L871,252.16l-12.37-15.09c4.28-.48,6.76-1,9.22-1q14.79.39,29.56,1.13c27,1.35,54,2.45,81,4.31,12.73.88,25.34,3.44,38,4.85,2.51.28,5.21-1.19,7.82-1.85l0-2.53a65.58,65.58,0,0,0-6.88-2.67c-24.69-6.73-49.53-13-74.06-20.18-24.06-7.09-47.77-15.3-71.7-22.83-15-4.72-15.21-4.56-15-20.67.25-22-1.1-44-8.75-64.76-5-13.65-6.78-13.51-20-11.13,0,2.18-.05,4.45,0,6.71.53,18,1.29,35.9,1.55,53.85.12,8.26-1.48,8.74-9.45,6.58-13.09-3.56-26.17-7.57-39.53-9.57-49.57-7.4-98-1.41-145.5,13.84-11.58,3.71-22.93,8.1-35.68,12.65V144h-2.46v53.06c19-4.07,38.82-8.74,58.83-12.51,42.09-7.92,84.52-11.23,127.26-6.55,6.48.7,12.66,4.15,19,6.32-.23.77-.47,1.54-.7,2.3l-5.19.71c-.22.84-.45,1.69-.68,2.54,18.05-4.91,27,9.55,39.85,15.69-26.12,6.91-49.58-6.59-75.36-8.81l4,3.17c-12.61,0-25.13-2.26-36.4.53-16.43,4.06-32.93,5-49.5,6.88-16.86,1.92-33.51,7.11-50.34,7.53-34.09.86-66.66,8.59-99.47,16.5-16.9,4.08-34.52,5.13-51.74,8-8.92,1.49-17.68,4-26.51,6l.43,2.58c3.55.42,7.12,1.28,10.67,1.2q38-.83,76.08-2c15.43-.44,30.85-1.11,46.27-1.53,8.5-.23,9.35.88,6.58,9-1.5,4.39-3.74,8.54-5.65,12.79l1.56,1.24,14.68-12.45,4.29,34.36,11.63-10.75c3.85,13.12.84,25-2.83,38.64L636,302.84c-1.07,7.58-1.89,13.47-3,21.59l8.84-11.7c5.73,19.47,1.1,28.66-15.69,35.66C615,353,604.43,358.77,593.67,364.1c-4.24,2.1-5.27,4.69-2.54,9.33,3.83,6.49,6.43,13.69,9.89,20.41,2.29,4.44,1.64,7.2-3.15,9.16-8.71,3.56-17.26,7.49-26,11.07-18.09,7.45-35.94,15.61-54.45,21.85-12.52,4.23-26.05,5.44-39,8.53-3.25.78-7.23,2.9-8.8,5.6-13,22.46-27.1,44.51-37.6,68.12-5.84,13.13-12.37,21.55-26.47,23.71a20.21,20.21,0,0,0-6.72,2.06c-1.9,1.06-4.21,2.67-4.83,4.53-1.78,5.38-2.59,11.07-4.19,16.52-1,3.37-1.95,7.3-4.27,9.64-11.18,11.28-22.41,22.58-34.39,33C328.84,627.07,306,645.91,283.28,665H277V95h815V336.15c-13.14,3.89-11.12-7.25-13.11-14.41C1077.05,338.11,1077.56,338.73,1092,339.29ZM662.73,194.6l15.77-1.7-6.25-4.78C669.79,189,663.51,186.18,662.73,194.6Zm-39.34,5.12.6,2.84,16.53-3-.72-3.27Z"/>
    <path d="M931.88,380.33c5.18-2.86,10.61-5.37,15.39-8.77,1.8-1.28,3.59-5.35,2.83-6.95-3.67-7.73-.09-12.79,5.16-17.61-9.49,11.71.67,18.4,6.23,25.72-1.77,1.84-3,3.91-2.67,5.61,1.58,7,6.82,7,12.84,6.33-2.44-7.52-5.16-14.31-6.74-21.35-1-4.32-1.9-10.14.18-13.32,3.51-5.36,6.12-12.58,14.35-13.76,2-.29,3.71-3,5.54-4.59l-1.72-2.52-27.92,17.34c5.7-8.26,13.48-13.45,23.13-16.26,8.51-2.49,8.88-2.56,13.22,6.69,4.8-3,10.32-5.1,13.85-9,10.83-11.9,24.58-15.79,40.23-16.92-2.29,1.94-4.4,3.37-6,5.24a6.37,6.37,0,0,0-.93,4.14c0,.49,1.63.91,2.52,1.36q1-2.14,1.94-4.29c6.43,1.08,12.17,7.08,19.65,2.41.84-.53,6.59,3.6,6.44,5.22-.47,4.81-2.85,9.41-4.29,14.16-.54,1.79-1.37,4.83-.61,5.42,1.54,1.19,5.38,2.13,6,1.36,6-7.36,14.93-1.24,21.48-5.16V494.31c-1.29.15-3-.2-3.79.51-8,7.71-15.85,15.56-23.63,23.47a3.61,3.61,0,0,0-.34,2.94c2.13,7.49,4.15,15,6.76,22.37.64,1.8,3.33,2.88,5.07,4.3l2.11-1.87a66,66,0,0,0-3.07-6.73c-2.83-4.82-2.25-8.34,3.41-10.27-1.26,2.12-2.5,4.24-3.75,6.36l2.37,1.85,10.19-11.13q-3.82,7-7.64,14l.88,1.43L1092,531.9V665h-62.81c-1-6.18-2.13-12.33-3-18.53-2.16-16.28-4-32.61-6.32-48.85-2-13.58-4.58-27.07-6.89-40.61-1.27-7.47-5.79-12.17-12.87-14.28-22-6.55-41.69-17.77-61.58-28.77a105.41,105.41,0,0,0-23.11-9.38c-3.44-.95-9.8.38-11.4,2.87-2.75,4.28-3.07,10.25-4,15.58-2.32,14,1.14,19,14.6,23.12,8.87,2.74,17.5,6.28,26.24,9.46a56.82,56.82,0,0,1-12.8.23c-12.52-.72-25-1.36-37.56-2.19-6.13-.4-9.42,1.78-9.29,8.33.11,5.73-.11,11.47-.34,17.2-.21,5.23,2.17,8.15,7.2,9.64,4.47,1.32,8.74,3.34,13.1,5a55.71,55.71,0,0,1-15.12,3.7c-5.49.72-8.64,3.32-7.89,9.26,1.53,12.24,2.6,24.56,4.73,36.69s6.84,14.81,19.59,14.39c16.72-.55,33.46-.56,50.19-.36,4.68.05,10.6,0,10.46,7.45H820.33c.88-4,.93-8.54,2.84-12,2.66-4.85.68-6.76-3.34-8.12-6.41-2.19-12.78-5.13-19.41-6-26.61-3.52-53.27-8.34-80-8.89-25.38-.52-50.87,3.65-76.31,5.81-5,.43-6.85,2.85-6.53,8.26.41,6.94-.58,14-1,21H498.42c-.69-4.19-1.37-8.38-2.39-14.66L476.43,665H283.28c22.67-19.09,45.56-37.93,67.92-57.37,12-10.42,23.21-21.72,34.39-33,2.32-2.34,3.28-6.27,4.27-9.64,1.6-5.45,2.41-11.14,4.19-16.52.62-1.86,2.93-3.47,4.83-4.53a20.21,20.21,0,0,1,6.72-2.06c14.1-2.16,20.63-10.58,26.47-23.71,10.5-23.61,24.58-45.66,37.6-68.12,1.57-2.7,5.55-4.82,8.8-5.6,12.95-3.09,26.48-4.3,39-8.53,18.51-6.24,36.36-14.4,54.45-21.85,8.69-3.58,17.24-7.51,26-11.07,4.79-2,5.44-4.72,3.15-9.16-3.46-6.72-6.06-13.92-9.89-20.41-2.73-4.64-1.7-7.23,2.54-9.33,10.76-5.33,21.34-11.1,32.4-15.71,16.79-7,21.42-16.19,15.69-35.66l-8.84,11.7c1.14-8.12,2-14,3-21.59L613.5,318.46c3.67-13.66,6.68-25.52,2.83-38.64L604.7,290.57l-4.29-34.36-14.68,12.45-1.56-1.24c1.91-4.25,4.15-8.4,5.65-12.79,2.77-8.13,1.92-9.24-6.58-9-15.42.42-30.84,1.09-46.27,1.53q-38,1.11-76.08,2c-3.55.08-7.12-.78-10.67-1.2l-.43-2.58c8.83-2,17.59-4.52,26.51-6,17.22-2.87,34.84-3.92,51.74-8,32.81-7.91,65.38-15.64,99.47-16.5,16.83-.42,33.48-5.61,50.34-7.53,16.57-1.89,33.07-2.82,49.5-6.88,11.27-2.79,23.79-.53,36.4-.53l-4-3.17c25.78,2.22,49.24,15.72,75.36,8.81-12.89-6.14-21.8-20.6-39.85-15.69.23-.85.46-1.7.68-2.54l5.19-.71c.23-.76.47-1.53.7-2.3-6.32-2.17-12.5-5.62-19-6.32-42.74-4.68-85.17-1.37-127.26,6.55-20,3.77-39.84,8.44-58.83,12.51V144h2.46v39.84c12.75-4.55,24.1-8.94,35.68-12.65,47.46-15.25,95.93-21.24,145.5-13.84,13.36,2,26.44,6,39.53,9.57,8,2.16,9.57,1.68,9.45-6.58-.26-18-1-35.9-1.55-53.85-.06-2.26,0-4.53,0-6.71,13.2-2.38,14.94-2.52,20,11.13,7.65,20.77,9,42.72,8.75,64.76-.18,16.11,0,16,15,20.67,23.93,7.53,47.64,15.74,71.7,22.83,24.53,7.23,49.37,13.45,74.06,20.18a65.58,65.58,0,0,1,6.88,2.67l0,2.53c-2.61.66-5.31,2.13-7.82,1.85-12.7-1.41-25.31-4-38-4.85-27-1.86-54-3-81-4.31q-14.77-.73-29.56-1.13c-2.46-.07-4.94.49-9.22,1L871,252.16l-22.34-3.71c-3.41,10.68-6.46,21.4,1.24,33.89l-11.41-2.69c1.57,6.75,3,12.86,4.93,21.18l-19-12.62c.79,12.94,1.46,23.89,2.24,36.78-2.87-2.53-5.3-4.27-7.19-6.46a71,71,0,0,1-5.08-7.54l-2.23.32c-.36,6-1.21,12.05-.81,18,.13,2.05,3,4.59,5.26,5.72,16.95,8.61,34,16.93,51.1,25.33.47.23,1,.4,1.43.65,13.86,7.64,14.52,9.91,7,23.46-1.75,3.14-3.3,6.38-5.63,10.91l57.15,20.13c-1.57-3.67-2.71-6.34-3.86-9l9.09,7.2c-6.64-7.17-1.3-11.42,3.29-15.92,5.52-5.42,4.27-11.86,2.94-18.94Zm-127.06,3.78c-2.08-.9-3.86-1.17-4.89-2.19-11.45-11.31-23.33-9-35.47-1.37-.44.27-1,.44-1.41.68-21.29,11.07-42.35,11.61-63.36-.91-6.94-4.14-14.29-7.57-21.47-11.3-10.53-5.47-12.82-4.38-15.44,7-.6,2.59-1.1,6-2.91,7.41-19.59,15.61-30.82,36.7-39.2,59.5-1.21,3.3-.35,8.75,1.74,11.62,9,12.39,18.62,24.4,28.55,36.09,3.78,4.45,5.58,8.61,3.79,14.15-3.11,9.63-6.29,19.24-9.32,28.9-6.23,19.86-12.28,39.77-18.62,59.6-4.94,15.46,2.88,27.34,19,28.22a102.7,102.7,0,0,0,11.77,0c33.49-2,66.75-1.32,100.17,3.21,21.32,2.89,43.24,1.47,64.9,1.49,2.46,0,6.59-2.8,7.13-5,4.63-18.57,7-37.18,2.7-56.44-5.13-22.94-16.91-43.07-25.3-64.61-1-2.61-2.08-6.61-.84-8.44,5.64-8.38,12-16.28,18.29-24.25,5.9-7.51,11.71-14.12,11.77-25.27.15-26.38-16.32-44.06-30.37-65.26C805.47,380.22,805.2,381.82,804.82,384.11ZM643.7,290.81c2,3.84,4.57,8.92,7.22,13.95,8.2,15.55,22.87,24.61,35.6,35.71C702.29,354.22,720.32,356,740,353c13.13-2,23.67-7.6,31.61-18.27a55.42,55.42,0,0,1,9.39-10.4c19.72-15.73,27.14-37.58,30.79-61.19,1.44-9.29-5.82-14.72-14.71-11.9a34.85,34.85,0,0,1-7.52,1.95c-18.35,1.49-35.68.78-45.38-18.95-1.29-2.63-5.5-4.4-8.73-5.43-11.78-3.77-18.43,5.5-24.72,12-6.75,7-13.43,10.91-23.06,10.7-5.72-.12-11.55,1.66-17.17,1.06-7.3-.78-14.94-2-21.55-5-10.29-4.64-12.55-4.17-15.14,7.18-.49,2.17-.66,4.41-.78,5.24L627.55,262c1.23,2.28,1.91,5.35,3.81,6.72,6.53,4.7,7.29,5.45,7.91,12.65-17.25-6-27.5-19.22-33.63-35.76-3,13.38,2.68,24,13.63,34.56C625.56,286.22,633.4,289.71,643.7,290.81Zm198.75,274c3,1.34,5.21,2.83,7.6,3.25,4,.7,28.72-15.83,29.84-19.6.66-2.24,1.14-4.53,1.72-6.8,1.43-5.53,2.46-11.21,4.42-16.55,1.7-4.64,1.86-8.07-2.38-11.54s-8.15-3.7-12.76-.84c-3.74,2.32-7.95,3.87-11.71,6.15-10,6.06-12.15,11.09-9.4,22.76C851.8,550.26,848.93,557.24,842.45,564.82ZM980.17,359.09l-13.09,2,13.09,19ZM630,255.73c-3.81-6.87-7.31-13.94-11.5-20.57-3.8-6-8.81-5.36-12.23,1C620.76,235.18,620.29,250.73,630,255.73ZM937.49,495.81l2.14.83c7.89-5.8,6.41-15.15,7.32-23.61Zm39.2-69.87-.12-2.51H962.06C966.78,427.56,971.49,430.84,976.69,425.94Zm-24-39.85,2.25-.62c-.48-3.18-.67-6.45-1.57-9.5-.35-1.18-2.28-1.9-3.49-2.83-.58,1.45-2,3.19-1.59,4.31C949.33,380.47,951.15,383.23,952.67,386.09Z"/>
    <path class="cls-1" d="M963.23,665c.14-7.5-5.78-7.4-10.46-7.45-16.73-.2-33.47-.19-50.19.36-12.75.42-17.44-2.15-19.59-14.39s-3.2-24.45-4.73-36.69c-.75-5.94,2.4-8.54,7.89-9.26a55.71,55.71,0,0,0,15.12-3.7c-4.36-1.71-8.63-3.73-13.1-5-5-1.49-7.41-4.41-7.2-9.64.23-5.73.45-11.47.34-17.2-.13-6.55,3.16-8.73,9.29-8.33,12.51.83,25,1.47,37.56,2.19a56.82,56.82,0,0,0,12.8-.23c-8.74-3.18-17.37-6.72-26.24-9.46-13.46-4.15-16.92-9.08-14.6-23.12.88-5.33,1.2-11.3,4-15.58,1.6-2.49,8-3.82,11.4-2.87A105.41,105.41,0,0,1,938.58,514c19.89,11,39.61,22.22,61.58,28.77,7.08,2.11,11.6,6.81,12.87,14.28,2.31,13.54,4.9,27,6.89,40.61,2.36,16.24,4.16,32.57,6.32,48.85.82,6.2,2,12.35,3,18.53Z"/>
    <path class="cls-1" d="M636.61,665c.39-7,1.38-14,1-21-.32-5.41,1.5-7.83,6.53-8.26,25.44-2.16,50.93-6.33,76.31-5.81,26.73.55,53.39,5.37,80,8.89,6.63.87,13,3.81,19.41,6,4,1.36,6,3.27,3.34,8.12-1.91,3.49-2,8-2.84,12Z"/>
    <path class="cls-1" d="M1078.52,529c-5.66,1.93-6.24,5.45-3.41,10.27a66,66,0,0,1,3.07,6.73l-2.11,1.87c-1.74-1.42-4.43-2.5-5.07-4.3-2.61-7.33-4.63-14.88-6.76-22.37a3.61,3.61,0,0,1,.34-2.94c7.78-7.91,15.64-15.76,23.63-23.47.74-.71,2.5-.36,3.79-.51v7.83c-11.38,2.86-22.68,16.63-20.58,22.21,3.56-3.2,7.53-7.07,11.91-10.39.66-.5,3.26,1.54,5,2.41l.64,2.25c-10.75-2.15-8.88,5.74-10.69,10.7C1078.25,529.32,1078.52,529,1078.52,529Z"/>
    <path d="M1078.24,529.32c1.81-5-.06-12.85,10.69-10.7l-.64-2.25c-1.7-.87-4.3-2.91-5-2.41-4.38,3.32-8.35,7.19-11.91,10.39-2.1-5.58,9.2-19.35,20.58-22.21v18.79l-4.63,5.78C1082.86,522.48,1081.06,527.69,1078.24,529.32Z"/>
    <path class="cls-1" d="M476.43,665,496,650.34c1,6.28,1.7,10.47,2.39,14.66Z"/>
    <path class="cls-1" d="M1087.37,526.71l4.63-5.78v11l-11.43,9.62-.88-1.43q3.81-7,7.64-14Z"/>
    <path d="M1092,339.29c-14.44-.56-15-1.18-13.11-17.55,2,7.16,0,18.3,13.11,14.41Z"/>
    <path class="cls-1" d="M955.35,346.46l27.92-17.34,1.72,2.52c-1.83,1.6-3.51,4.3-5.54,4.59-8.23,1.18-10.84,8.4-14.35,13.76-2.08,3.18-1.15,9-.18,13.32,1.58,7,4.3,13.83,6.74,21.35-6,.68-11.26.68-12.84-6.33-.38-1.7.9-3.77,2.67-5.61-5.56-7.32-15.72-14-6.23-25.72A5.07,5.07,0,0,0,955.35,346.46Z"/>
    <path class="cls-1" d="M931.88,380.33l7.22-1.47c1.33,7.08,2.58,13.52-2.94,18.94-4.59,4.5-9.93,8.75-3.29,15.92l-9.09-7.2.25.26c.67-4.17,3.26-9.44,1.62-12.28-3.16-5.46-1.48-8.28,2.4-11.45Z"/>
    <path d="M928.05,383.05c-3.88,3.17-5.56,6-2.4,11.45,1.64,2.84-.95,8.11-1.62,12.28-1.88-4.68-5.09-9.32-5.24-14.06S922.05,383.51,928.05,383.05Z"/>
    <path d="M662.73,194.6c.78-8.42,7.06-5.63,9.52-6.48l6.25,4.78Z"/>
    <path d="M623.39,199.72l16.41-3.47.72,3.27-16.53,3Z"/>
    <path class="cls-1" d="M804.82,384.11c.38-2.29.65-3.89,1.2-7.21,14.05,21.2,30.52,38.88,30.37,65.26-.06,11.15-5.87,17.76-11.77,25.27-6.26,8-12.65,15.87-18.29,24.25-1.24,1.83-.17,5.83.84,8.44,8.39,21.54,20.17,41.67,25.3,64.61,4.3,19.26,1.93,37.87-2.7,56.44-.54,2.19-4.67,5-7.13,5-21.66,0-43.58,1.4-64.9-1.49-33.42-4.53-66.68-5.25-100.17-3.21a102.7,102.7,0,0,1-11.77,0c-16.11-.88-23.93-12.76-19-28.22,6.34-19.83,12.39-39.74,18.62-59.6,3-9.66,6.21-19.27,9.32-28.9,1.79-5.54,0-9.7-3.79-14.15-9.93-11.69-19.52-23.7-28.55-36.09-2.09-2.87-2.95-8.32-1.74-11.62,8.38-22.8,19.61-43.89,39.2-59.5,1.81-1.44,2.31-4.82,2.91-7.41,2.62-11.37,4.91-12.46,15.44-7,7.18,3.73,14.53,7.16,21.47,11.3,21,12.52,42.07,12,63.36.91.46-.24,1-.41,1.41-.68,12.14-7.59,24-9.94,35.47,1.37C801,382.94,802.74,383.21,804.82,384.11ZM760.23,453,705,456l-.6,2.61c7.47,2.49,14.81,5.57,22.45,7.34C740.57,469.17,749.34,458.78,760.23,453ZM728.31,576.72h.37V543.65h-.37Z"/>
    <path class="cls-1" d="M643.7,290.81c-10.3-1.1-18.14-4.59-24.43-10.65C608.32,269.6,602.65,259,605.64,245.6c6.13,16.54,16.38,29.74,33.63,35.76-.62-7.2-1.38-7.95-7.91-12.65-1.9-1.37-2.58-4.44-3.81-6.72l5.44-1.91c.12-.83.29-3.07.78-5.24,2.59-11.35,4.85-11.82,15.14-7.18,6.61,3,14.25,4.19,21.55,5,5.62.6,11.45-1.18,17.17-1.06,9.63.21,16.31-3.71,23.06-10.7,6.29-6.52,12.94-15.79,24.72-12,3.23,1,7.44,2.8,8.73,5.43,9.7,19.73,27,20.44,45.38,18.95a34.85,34.85,0,0,0,7.52-1.95c8.89-2.82,16.15,2.61,14.71,11.9-3.65,23.61-11.07,45.46-30.79,61.19a55.42,55.42,0,0,0-9.39,10.4C763.63,345.44,753.09,351,740,353c-19.64,3-37.67,1.18-53.44-12.57-12.73-11.1-27.4-20.16-35.6-35.71C648.27,299.73,645.69,294.65,643.7,290.81Zm149.77,6.38c-44.81,5.36-89.2,8.16-134-1.87,2.44,4.08,4.86,8.08,7.25,12.1,4.26,7.16,9.68,12.87,18.81,12.06,3.91-.35,7.69-2.21,11.53-3.37,21.61-6.48,42.85-4.37,64,2.53a23.08,23.08,0,0,0,9.79,1.31C782.72,318.39,790.7,309.87,793.47,297.19ZM722.71,261.7c-1.31,3.66-4,7.33-3.1,9.74.81,2.26,5.58,4.72,8.2,4.34,4.25-.62,8.17-3.49,12.23-5.41l-.6-3Z"/>
    <path class="cls-1" d="M842.45,564.82c6.48-7.58,9.35-14.56,7.33-23.17-2.75-11.67-.62-16.7,9.4-22.76,3.76-2.28,8-3.83,11.71-6.15,4.61-2.86,8.44-2.68,12.76.84s4.08,6.9,2.38,11.54c-2,5.34-3,11-4.42,16.55-.58,2.27-1.06,4.56-1.72,6.8-1.12,3.77-25.86,20.3-29.84,19.6C847.66,567.65,845.47,566.16,842.45,564.82Z"/>
    <path class="cls-1" d="M980.17,359.09v21l-13.09-19Z"/>
    <path class="cls-1" d="M630,255.73c-9.75-5-9.28-20.55-23.73-19.61,3.42-6.32,8.43-7,12.23-1C622.73,241.79,626.23,248.86,630,255.73Z"/>
    <path class="cls-1" d="M937.49,495.81,947,473c-.91,8.46.57,17.81-7.32,23.61Z"/>
    <path class="cls-1" d="M976.69,425.94c-5.2,4.9-9.91,1.62-14.63-2.51h14.51Z"/>
    <path class="cls-1" d="M952.67,386.09c-1.52-2.86-3.34-5.62-4.4-8.64-.39-1.12,1-2.86,1.59-4.31,1.21.93,3.14,1.65,3.49,2.83.9,3,1.09,6.32,1.57,9.5Z"/>
    <path class="cls-1" d="M1087.37,526.71l0-.6-10.19,11.13-2.37-1.85c1.25-2.12,2.49-4.24,3.75-6.36,0,0-.27.29-.28.29C1081.06,527.69,1082.86,522.48,1087.37,526.71Z"/>
    <path d="M760.23,453c-10.89,5.82-19.66,16.21-33.38,13-7.64-1.77-15-4.85-22.45-7.34L705,456Z"/>
    <path d="M728.31,576.72V543.65h.37v33.07Z"/>
    <path d="M793.47,297.19c-2.77,12.68-10.75,21.2-22.68,22.76a23.08,23.08,0,0,1-9.79-1.31c-21.1-6.9-42.34-9-64-2.53-3.84,1.16-7.62,3-11.53,3.37-9.13.81-14.55-4.9-18.81-12.06-2.39-4-4.81-8-7.25-12.1C704.27,305.35,748.66,302.55,793.47,297.19Z"/>
    <path d="M722.71,261.7l16.73,5.7.6,3c-4.06,1.92-8,4.79-12.23,5.41-2.62.38-7.39-2.08-8.2-4.34C718.75,269,721.4,265.36,722.71,261.7Z"/>
  </g>
</svg>
