<?xml version="1.0" standalone="no"?>
<!DOCTYPE svg PUBLIC "-//W3C//DTD SVG 20010904//EN"
 "http://www.w3.org/TR/2001/REC-SVG-20010904/DTD/svg10.dtd">
<svg version="1.0" xmlns="http://www.w3.org/2000/svg"
 width="68.000000pt" height="67.000000pt" viewBox="0 0 68.000000 67.000000"
 preserveAspectRatio="xMidYMid meet">
<metadata>
Created by potrace 1.16, written by Peter Selinger 2001-2019
</metadata>
<g transform="translate(0.000000,67.000000) scale(0.100000,-0.100000)"
fill="#000000" stroke="none">
<path d="M251 613 c-32 -6 -127 -108 -157 -169 -30 -62 -42 -169 -25 -232 16
-56 81 -123 137 -140 51 -15 212 -16 251 -1 46 17 92 69 108 123 20 68 20 142
-1 150 -21 8 -80 -20 -103 -50 -10 -12 -35 -31 -55 -40 -34 -17 -37 -17 -54
-1 -15 15 -17 40 -18 174 0 150 -1 156 -23 174 -13 11 -26 18 -30 18 -3 -1
-17 -4 -30 -6z m54 -33 c4 -6 9 -81 12 -168 3 -86 10 -163 15 -169 6 -7 23
-13 38 -13 24 0 52 17 132 81 15 12 33 19 42 16 24 -9 20 -91 -7 -157 -30 -76
-61 -90 -190 -90 -134 0 -187 24 -238 107 -17 26 -20 50 -20 122 0 104 20 154
94 234 37 39 51 47 80 47 20 0 39 -5 42 -10z"/>
</g>
</svg>
