<?xml version="1.0" standalone="no"?>
<!DOCTYPE svg PUBLIC "-//W3C//DTD SVG 20010904//EN"
 "http://www.w3.org/TR/2001/REC-SVG-20010904/DTD/svg10.dtd">
<svg version="1.0" xmlns="http://www.w3.org/2000/svg"
 width="50.000000pt" height="60.000000pt" viewBox="0 0 235.000000 242.000000"
 preserveAspectRatio="xMidYMid meet">
<metadata>
Created by potrace 1.10, written by Peter Selinger 2001-2011
</metadata>
<g transform="translate(0.000000,242.000000) scale(0.050000,-0.050000)"
fill="#000000" stroke="none">
<path d="M1544 4364 c-91 -74 -203 -179 -249 -234 -46 -55 -161 -182 -254
-282 -292 -312 -530 -768 -599 -1148 -13 -71 -28 -152 -34 -180 -5 -27 -17
-95 -26 -150 -22 -138 -8 -720 18 -720 1 0 6 -31 11 -70 21 -183 33 -240 50
-240 11 0 19 -16 19 -35 1 -38 19 -74 109 -207 33 -48 58 -95 55 -103 -10 -36
463 -475 512 -475 11 0 30 -13 44 -30 14 -16 50 -30 81 -30 31 0 70 -13 86
-30 17 -16 48 -30 70 -30 23 0 46 -8 52 -18 6 -10 40 -23 76 -29 36 -6 119
-21 185 -33 361 -69 1379 -21 1571 73 303 149 719 608 719 794 0 17 8 36 18
42 10 6 30 76 43 156 14 80 34 157 45 171 24 30 45 668 26 771 -24 128 -275
180 -434 90 -107 -60 -314 -239 -418 -361 -129 -151 -235 -235 -360 -284 -49
-20 -101 -45 -114 -56 -72 -59 -253 -42 -339 32 -130 112 -135 158 -119 981
22 1069 -32 1671 -148 1671 -19 0 -68 23 -108 50 -65 44 -94 50 -248 49 l-174
-1 -166 -134z m595 -83 c23 -26 41 -55 41 -64 0 -28 4 -45 23 -96 19 -50 38
-492 37 -858 -1 -121 8 -218 20 -233 16 -19 16 -30 1 -40 -29 -17 -27 -1051 2
-1159 70 -263 313 -338 617 -190 175 85 409 263 468 356 161 255 510 419 651
306 87 -69 56 -669 -51 -983 -16 -49 -48 -152 -70 -228 -64 -220 -331 -532
-457 -532 -11 0 -68 -23 -127 -51 -241 -114 -1707 -56 -1843 73 -10 10 -35 18
-55 18 -20 0 -36 7 -36 16 0 8 -40 27 -90 42 -51 15 -90 39 -90 54 0 15 -13
28 -28 28 -28 0 -105 81 -182 191 -22 32 -67 85 -100 118 -73 74 -170 202
-170 225 0 9 -15 43 -32 76 -122 229 -152 818 -71 1420 21 157 63 274 176 486
42 80 90 170 105 199 36 71 125 187 248 323 53 60 132 160 176 224 81 121 231
250 312 271 25 6 46 19 46 28 0 61 425 43 479 -20z"/>
</g>
</svg>
